<?xml version="1.0" standalone="no"?>
<!DOCTYPE svg PUBLIC "-//W3C//DTD SVG 20010904//EN"
 "http://www.w3.org/TR/2001/REC-SVG-20010904/DTD/svg10.dtd">
<svg version="1.0" xmlns="http://www.w3.org/2000/svg"
 width="1890.000000pt" height="1417.000000pt" viewBox="0 0 1890.000000 1417.000000"
 preserveAspectRatio="xMidYMid meet">

<g transform="translate(0.000000,1417.000000) scale(0.100000,-0.100000)"
fill="#69d376" stroke="none">
<path d="M12893 10775 c-859 -111 -1846 -657 -2993 -1654 -277 -242 -488 -438
-829 -776 -551 -545 -1042 -1074 -1601 -1725 -214 -249 -388 -427 -513 -524
-575 -447 -1026 -310 -1547 469 -160 240 -288 464 -605 1060 -568 1067 -822
1477 -1206 1940 -114 138 -392 414 -519 515 -391 312 -808 495 -1263 555 -136
17 -465 20 -602 5 -353 -40 -714 -140 -1107 -307 l-108 -46 0 -5138 0 -5139
9445 0 9445 0 0 2978 0 2977 -103 33 c-579 184 -1140 626 -1736 1367 -204 254
-310 398 -752 1016 -643 902 -836 1147 -1182 1498 -536 542 -1040 823 -1610
896 -144 18 -469 18 -614 0z"/>
</g>
</svg>
