<?xml version="1.0" standalone="no"?>
<!DOCTYPE svg PUBLIC "-//W3C//DTD SVG 20010904//EN"
 "http://www.w3.org/TR/2001/REC-SVG-20010904/DTD/svg10.dtd">
<svg version="1.0" xmlns="http://www.w3.org/2000/svg"
 width="577.000000pt" height="432.000000pt" viewBox="0 0 577.000000 432.000000"
 preserveAspectRatio="xMidYMid meet">

<g transform="translate(0.000000,432.000000) scale(0.100000,-0.100000)"
fill="#69d376" stroke="none">
<path d="M3895 3275 c-111 -21 -162 -39 -300 -104 -218 -104 -455 -281 -758
-566 -96 -91 -177 -169 -179 -174 -2 -5 -41 -49 -88 -98 -106 -112 -141 -150
-262 -289 -174 -199 -250 -254 -358 -262 -72 -5 -118 15 -187 81 -88 83 -169
210 -333 522 -265 506 -472 732 -760 831 -45 16 -84 19 -215 19 -145 0 -169
-3 -250 -27 -119 -36 -205 -74 -205 -92 0 -12 10 -10 53 8 94 42 211 74 316
87 237 30 454 -54 642 -248 135 -138 222 -272 428 -652 161 -297 206 -367 291
-452 82 -82 125 -103 210 -104 128 0 202 57 485 380 178 203 467 494 619 624
536 459 938 597 1271 436 200 -96 344 -247 653 -682 310 -437 480 -603 714
-697 78 -30 78 -31 78 -11 0 8 -5 15 -11 15 -21 0 -134 54 -200 96 -178 113
-318 270 -614 689 -297 421 -481 589 -717 655 -99 28 -223 33 -323 15z"/>
</g>
</svg>
